<?xml version="1.0" encoding="utf-8"?>
<!-- Generator: Adobe Illustrator 26.0.2, SVG Export Plug-In . SVG Version: 6.00 Build 0)  -->
<svg version="1.1" id="Layer_1" xmlns="http://www.w3.org/2000/svg" xmlns:xlink="http://www.w3.org/1999/xlink" x="0px" y="0px"
	 width="700px" height="700px" viewBox="0 0 700 700" style="enable-background:new 0 0 700 700;" xml:space="preserve">
<g>
	<path d="M250.6,523.9h18.1v18.1h-18.1V523.9z"/>
	<path d="M214.5,523.9h18.1v18.1h-18.1V523.9z"/>
	<path d="M178.4,523.9h18.1v18.1h-18.1V523.9z"/>
	<path d="M503.5,523.9h18.1v18.1h-18.1L503.5,523.9z"/>
	<path d="M467.4,523.9h18.1v18.1h-18.1V523.9z"/>
	<path d="M431.3,523.9h18.1v18.1h-18.1V523.9z"/>
	<path d="M187.4,45.2h45.2v18.1h-45.2V45.2z"/>
	<path d="M208.1,15.4l12.8-12.8L248,29.7l-12.8,12.8L208.1,15.4z"/>
	<path d="M630,234.8c0-49.8-40.5-90.3-90.3-90.3c-6.2,0-12.4,0.7-18.4,2c-3.4-39.8-35.7-71.4-75.7-74C433.8,30.7,395.5,0,350,0
		s-83.8,30.8-95.6,72.5c-40,2.6-72.2,34.2-75.7,74c-6-1.2-12.2-2-18.4-2c-49.8,0-90.3,40.5-90.3,90.3c0,19.7,6.4,38.7,18.1,54.3
		C76.6,304.4,70,323.2,70,343.2c0,49.8,40.5,90.3,90.3,90.3c6.2,0,12.4-0.7,18.4-2c3.6,41.5,38.5,74.2,80.9,74.2
		c17.7,0,34.7-5.8,48.6-16.2l21,56.1c3.2,8.6,11.5,14.3,20.7,14.3s17.5-5.8,20.7-14.3l21-56.1c13.9,10.4,31,16.2,48.6,16.2
		c42.4,0,77.3-32.7,80.9-74.2c6,1.3,12.2,2,18.4,2c49.8,0,90.3-40.5,90.3-90.3c0-20.1-6.6-38.8-18.1-54.1
		C623.6,273.5,630,254.5,630,234.8L630,234.8z M350,18.1c44.8,0,81.3,36.5,81.3,81.3c0,21.4-7.1,42.5-19.9,59.6l-29.8,39.7h-4.5
		v-72.3h9c14.9,0,27.1-12.2,27.1-27.1c0-14.9-12.2-27.1-27.1-27.1c-14.9,0-27.1,12.2-27.1,27.1v9H341v-9c0-14.9-12.2-27.1-27.1-27.1
		c-14.9,0-27.1,12.2-27.1,27.1c0,14.9,12.2,27.1,27.1,27.1h9v72.3h-4.5L288.6,159c-12.8-17.1-19.9-38.3-19.9-59.6
		C268.7,54.5,305.2,18.1,350,18.1L350,18.1z M326.9,487.8h46.2l-6.8,18.1h-32.6L326.9,487.8z M322.9,216.8h54.2v18.1h-54.2V216.8z
		 M322.9,108.4h-9c-5,0-9-4-9-9s4.1-9,9-9c5,0,9,4,9,9V108.4z M377.1,469.7H359V289h18.1V469.7z M359,198.7H341v-72.3H359V198.7z
		 M322.9,252.9h54.2V271h-54.2V252.9z M322.9,289H341v180.6h-18.1V289z M377.1,108.4v-9c0-5,4.1-9,9-9c5,0,9,4,9,9s-4.1,9-9,9H377.1
		z M259.7,487.8c-34.4,0-62.4-27.6-63.2-61.9c8.7-3.8,16.8-8.9,24-15.3l-12.1-13.5c-13.3,11.9-30.4,18.4-48.2,18.4
		c-39.8,0-72.3-32.4-72.3-72.3c0-27.6,15.4-52.4,40.1-64.8l-8.1-16.2c-7.2,3.6-13.7,8.1-19.5,13.2c-8.1-11.9-12.6-26-12.6-40.6
		c0-39.8,32.4-72.3,72.3-72.3c6.4,0,12.8,0.9,18.9,2.5c1.8,12.9,6.7,24.9,14,35.2c-9.6,14.2-14.9,31.1-14.9,48.3v4.2h18.1v-4.2
		c0-12.1,3.3-23.9,9.4-34.3c9.4,8.3,20.8,14.6,33.5,17.9l4.5-17.5c-27.9-7.2-47.4-32.4-47.4-61.2c0-31.9,23.8-58.3,54.6-62.6
		c-0.2,2.8-0.4,5.5-0.4,8.4c0,25.2,8.3,50.3,23.5,70.5l30.7,40.9v257.9C293,480.8,276.7,487.8,259.7,487.8L259.7,487.8z
		 M346.3,539.4l-5.8-15.5h19.1l-5.8,15.5C352.6,542.5,347.4,542.5,346.3,539.4L346.3,539.4z M539.7,415.5
		c-17.8,0-34.9-6.5-48.2-18.4l-12.1,13.5c7.2,6.4,15.3,11.5,24,15.3c-0.7,34.2-28.8,61.9-63.2,61.9c-17.1,0-33.3-7-45.2-19.1V210.8
		l30.7-40.9c15.1-20.2,23.5-45.2,23.5-70.5c0-2.8-0.2-5.6-0.4-8.4c30.8,4.2,54.6,30.6,54.6,62.6c0,28.9-19.5,54.1-47.4,61.2
		l4.5,17.5c12.8-3.3,24.1-9.5,33.5-17.9c6,10.4,9.4,22.2,9.4,34.3v4.2h18.1v-4.2c0-17.2-5.2-34.2-14.9-48.4
		c7.3-10.3,12.1-22.3,14-35.2c6.2-1.7,12.5-2.5,18.9-2.5c39.8,0,72.3,32.4,72.3,72.3c0,14.6-4.5,28.7-12.6,40.6
		c-5.8-5.1-12.3-9.6-19.5-13.2l-8,16.2c24.8,12.3,40.2,37.1,40.2,64.8C611.9,383.1,579.5,415.5,539.7,415.5L539.7,415.5z"/>
	<path d="M467.4,45.2h45.2v18.1h-45.2V45.2z"/>
	<path d="M452,29.7l27.1-27.1l12.8,12.8l-27.1,27.1L452,29.7z"/>
</g>
</svg>
