<?xml version="1.0" encoding="utf-8"?>
<!-- Generator: Adobe Illustrator 26.0.2, SVG Export Plug-In . SVG Version: 6.00 Build 0)  -->
<svg version="1.1" id="Layer_1" xmlns="http://www.w3.org/2000/svg" xmlns:xlink="http://www.w3.org/1999/xlink" x="0px" y="0px"
	 width="700px" height="700px" viewBox="0 0 700 700" style="enable-background:new 0 0 700 700;" xml:space="preserve">
<g>
	<path d="M472.5,315v-58.6l57.3-99.3c2.4-4.1,1-9.4-3.1-11.9l-43.2-26.1h0c-2-1.2-4.4-1.6-6.7-1c-2.3,0.6-4.2,2.1-5.4,4.1
		l-43.1,74.6c-2.4,4.2-1,9.5,3.2,12s9.5,1,12-3.2l38.6-66.9l28.3,17l-9,15.5l-7.6-4.4h0c-4.2-2.4-9.5-1-12,3.2
		c-2.4,4.2-1,9.5,3.2,12l7.6,4.4l-8.8,15.1l-7.6-4.4c-4.2-2.4-9.5-1-12,3.2c-2.4,4.2-1,9.5,3.2,12l7.6,4.4l-8.8,15.1l-7.6-4.4v0
		c-4.2-2.4-9.5-1-12,3.2c-2.4,4.2-1,9.5,3.2,12l7.6,4.4c-0.8,1.2-1.5,2.4-2.2,3.7c-5.2,3.2-25.7,8-60.8,10.4
		c3.6-5.2,6-11.2,7.1-17.5c6.5-2.1,12-6.6,15.2-12.7c3.2-6.1,3.9-13.1,1.9-19.7c-2-6.6-6.4-12.1-12.5-15.4c1.5-2.5,3.6-4.7,5.9-6.5
		c25-18.5,40.5-47,42.4-78c1.9-31-10-61.2-32.6-82.6S368.8-2.9,337.9,0.7c-28,3.2-53.6,17.6-70.9,39.8
		c-17.3,22.3-24.9,50.6-21.1,78.5c3.8,28,18.7,53.2,41.3,70c2.5,1.9,4.6,4.2,6.2,6.9c-6,3.3-10.4,8.8-12.4,15.4
		c-2,6.6-1.2,13.6,2,19.7s8.7,10.6,15.2,12.6c1,6.3,3.5,12.3,7.1,17.5c-19.8-0.5-39.4-3.6-58.4-9.2l-26.7-46.2l30.3-17.5l10.1,17.4
		h0c2.4,4.2,7.8,5.6,12,3.2s5.6-7.8,3.2-12l-14.4-25c-0.1-0.1-2.6-2.9-2.8-2.9l-49-32.4v0c-2.8-1.8-6.3-1.9-9.2-0.3
		c-2.9,1.7-4.6,4.8-4.3,8.1l3.5,58.6c0,0.1,1.1,3.8,1.1,3.9l26.8,46.4V315c-12.5,0-24.1,6.7-30.3,17.5c-6.2,10.8-6.2,24.2,0,35
		c6.3,10.8,17.8,17.5,30.3,17.5v17.5c0,23.2,6.6,45.8,19,65.4c12.4,19.6,30.1,35.2,51,45.1v38.2c0,2.3,0.9,4.5,2.6,6.2
		s3.9,2.6,6.2,2.6h87.5c2.3,0,4.5-0.9,6.2-2.6s2.6-3.9,2.6-6.2V513c20.9-9.9,38.6-25.6,51-45.1c12.4-19.6,19-42.2,19-65.4V385
		c12.5,0,24.1-6.7,30.3-17.5c6.2-10.8,6.2-24.2,0-35C496.6,321.7,485,315,472.5,315L472.5,315z M214.6,160.9l22.5,14.9l-21,12.1
		L214.6,160.9z M227.5,367.5c-6.3,0-12-3.3-15.2-8.8s-3.1-12.1,0-17.5s8.9-8.8,15.2-8.8V367.5z M263.6,91c3.1-18.8,12.3-36,26-49.2
		c13.8-13.1,31.4-21.5,50.3-23.8c25.7-3,51.4,5.6,70.2,23.4c18.8,17.8,28.7,43,27.2,68.8c-1.6,25.8-14.5,49.6-35.3,65
		c-5.9,4.4-10.6,10.4-13.4,17.2h-29.8v-36.6c7.8-2.8,13.9-9.1,16.4-17.1c2.4-8,1-16.6-4-23.3c-5-6.7-12.8-10.6-21.1-10.6
		s-16.2,3.9-21.1,10.6c-4.9,6.7-6.4,15.3-4,23.3c2.4,8,8.5,14.3,16.4,17.1v36.6h-29.8c-3-6.9-7.7-12.9-13.7-17.4
		c-12.8-9.6-22.8-22.5-28.8-37.3S261.1,106.8,263.6,91L263.6,91z M350,140c-3.5,0-6.7-2.1-8.1-5.4c-1.4-3.3-0.6-7,1.9-9.5
		s6.3-3.2,9.5-1.9c3.3,1.4,5.4,4.5,5.4,8.1c0,2.3-0.9,4.5-2.6,6.2S352.3,140,350,140z M297.5,218.8c0-4.8,3.9-8.8,8.8-8.8h87.5
		c4.8,0,8.8,3.9,8.8,8.8s-3.9,8.8-8.8,8.8h-87.5C301.4,227.5,297.5,223.6,297.5,218.8z M383.4,245c-1.8,5-5,9.3-9.3,12.4
		c-4.3,3.1-9.4,4.9-14.7,5h-18.9h0c-5.3-0.1-10.4-1.9-14.7-5c-4.3-3.1-7.5-7.4-9.3-12.4H383.4z M385,542.5h-70v-22.7
		c22.8,6.9,47.2,6.9,70,0V542.5z M455,315c-2,0-3.9-0.3-5.8-1c-4.6-1.6-9.6,0.8-11.2,5.3c-1.6,4.6,0.8,9.6,5.3,11.2
		c3.8,1.3,7.7,2,11.7,2v70c0,37.5-20,72.2-52.5,90.9c-32.5,18.8-72.5,18.8-105,0C265,474.7,245,440,245,402.5v-70h128.5
		c20.9,0.1,40.9-8.2,55.6-23l5.8-5.8h0c3.3-3.4,3.3-8.9-0.1-12.3s-8.8-3.4-12.3-0.1l-5.8,5.8v0c-11.4,11.5-27,18-43.2,17.9H245
		v-45.6c23,8.1,64.2,10.2,95.7,10.6c0.2,0,0.3,0.1,0.5,0.1h17.5c0.2,0,0.4-0.1,0.5-0.1c31.5-0.3,72.7-2.4,95.7-10.6L455,315z
		 M472.5,367.5v-35c6.3,0,12,3.3,15.2,8.8s3.1,12.1,0,17.5S478.8,367.5,472.5,367.5z"/>
	<path d="M288.8,358.8c-4.8,0-8.8,3.9-8.8,8.8v8.8c0,4.8,3.9,8.8,8.8,8.8s8.8-3.9,8.8-8.8v-8.8c0-2.3-0.9-4.5-2.6-6.2
		S291.1,358.8,288.8,358.8z"/>
	<path d="M411.2,358.8c-4.8,0-8.8,3.9-8.8,8.8v8.8c0,4.8,3.9,8.8,8.8,8.8s8.8-3.9,8.8-8.8v-8.8c0-2.3-0.9-4.5-2.6-6.2
		S413.6,358.8,411.2,358.8z"/>
	<path d="M498.8,35h8.8v8.8c0,4.8,3.9,8.8,8.8,8.8c4.8,0,8.8-3.9,8.8-8.8V35h8.8c4.8,0,8.8-3.9,8.8-8.8s-3.9-8.8-8.8-8.8H525V8.8
		c0-4.8-3.9-8.8-8.8-8.8s-8.8,3.9-8.8,8.8v8.8h-8.8c-4.8,0-8.8,3.9-8.8,8.8S493.9,35,498.8,35z"/>
	<path d="M183.8,87.5h8.8v8.8c0,4.8,3.9,8.8,8.8,8.8s8.8-3.9,8.8-8.8v-8.8h8.8c4.8,0,8.8-3.9,8.8-8.8s-3.9-8.8-8.8-8.8H210v-8.8
		c0-4.8-3.9-8.8-8.8-8.8s-8.8,3.9-8.8,8.8V70h-8.8c-4.8,0-8.8,3.9-8.8,8.8S178.9,87.5,183.8,87.5z"/>
	<path d="M551.2,245h-8.8v-8.8c0-4.8-3.9-8.8-8.8-8.8s-8.8,3.9-8.8,8.8v8.8h-8.8c-4.8,0-8.8,3.9-8.8,8.8s3.9,8.8,8.8,8.8h8.8v8.8
		c0,4.8,3.9,8.8,8.8,8.8s8.8-3.9,8.8-8.8v-8.8h8.8c4.8,0,8.8-3.9,8.8-8.8S556.1,245,551.2,245z"/>
	<path d="M183.8,262.5H175v-8.8c0-4.8-3.9-8.8-8.8-8.8s-8.8,3.9-8.8,8.8v8.8h-8.8c-4.8,0-8.8,3.9-8.8,8.8s3.9,8.8,8.8,8.8h8.8v8.8
		c0,4.8,3.9,8.8,8.8,8.8s8.8-3.9,8.8-8.8V280h8.8c4.8,0,8.8-3.9,8.8-8.8S188.6,262.5,183.8,262.5z"/>
</g>
</svg>
