<?xml version="1.0" encoding="utf-8"?>
<!-- Generator: Adobe Illustrator 26.0.2, SVG Export Plug-In . SVG Version: 6.00 Build 0)  -->
<svg version="1.1" id="Layer_1" xmlns="http://www.w3.org/2000/svg" xmlns:xlink="http://www.w3.org/1999/xlink" x="0px" y="0px"
	 width="700px" height="700px" viewBox="0 0 700 700" style="enable-background:new 0 0 700 700;" xml:space="preserve">
<g>
	<path d="M568.8,253.8h-52.5v-26.2c0-4.8-3.9-8.8-8.8-8.8h-26.2V175h61.2c14.5,0,26.2-11.8,26.2-26.2v-40.1l20.1,20.1l12.4-12.4
		l-35-35c-3.4-3.4-9-3.4-12.4,0l-35,35l12.4,12.4l20.1-20.1v40.1c0,4.8-3.9,8.8-8.8,8.8h-61.2V64.9l20.1,20.1l12.4-12.4l-35-35
		c-3.4-3.4-9-3.4-12.4,0l-35,35l12.4,12.4l20.1-20.1v92.6H455c-14.5,0-26.2,11.8-26.2,26.2v35h-35V175h17.5v-17.5h-14.6l14.3-50.1
		c0.7-2.3,0.3-4.8-0.9-6.9L357.5,13c-3.2-5.3-11.8-5.3-15,0L290,100.5c-1.2,2.1-1.6,4.6-0.9,6.9l14.3,50.1h-14.6V175h17.5v43.8h-35
		v-96.2c0-1.4-0.3-2.7-0.9-3.9l-26.2-52.5c-3-5.9-12.7-5.9-15.7,0l-26.2,52.5c-0.6,1.2-0.9,2.6-0.9,3.9v96.2h-8.8
		c-4.8,0-8.8,3.9-8.8,8.8v26.2h-52.5c-29,0-52.5,23.5-52.5,52.5v122.5c0,29,23.5,52.5,52.5,52.5h52.5v26.2
		c0,24.1,19.6,43.8,43.8,43.8h245c24.1,0,43.8-19.6,43.8-43.8v-26.2h52.5c29,0,52.5-23.5,52.5-52.5V306.2
		C621.2,277.3,597.7,253.8,568.8,253.8L568.8,253.8z M131.2,463.8c-19.3,0-35-15.7-35-35V306.2c0-19.3,15.7-35,35-35h52.5v17.5H140
		c-14.5,0-26.2,11.8-26.2,26.2v105c0,14.5,11.8,26.2,26.2,26.2h43.8v17.5H131.2z M183.8,306.2v122.5H140c-4.8,0-8.8-3.9-8.8-8.8V315
		c0-4.8,3.9-8.8,8.8-8.8H183.8z M446.2,183.8c0-4.8,3.9-8.8,8.8-8.8h8.8v43.8h-17.5V183.8z M350,271.2c-14.5,0-26.2,11.8-26.2,26.2
		v35c0,4.8-3.9,8.8-8.8,8.8s-8.8-3.9-8.8-8.8V280c0-14.5-11.8-26.2-26.2-26.2s-26.2,11.8-26.2,26.2c0,4.8-3.9,8.8-8.8,8.8
		s-8.8-3.9-8.8-8.8v-43.8h157.5v131.2c0,4.8-3.9,8.8-8.8,8.8s-8.8-3.9-8.8-8.8v-70C376.2,283,364.5,271.2,350,271.2z M358.8,113.8
		c0,4.8-3.9,8.8-8.8,8.8s-8.8-3.9-8.8-8.8s3.9-8.8,8.8-8.8S358.8,108.9,358.8,113.8z M307,106.2l34.3-57.2v40
		c-10.2,3.6-17.5,13.2-17.5,24.6c0,14.5,11.8,26.2,26.2,26.2s26.2-11.8,26.2-26.2c0-11.4-7.3-21-17.5-24.6v-40l34.3,57.2l-14.6,51.2
		h-56.8L307,106.2z M323.8,175h52.5v43.8h-52.5V175z M236.2,89.6l12.1,24.2h-24.2L236.2,89.6z M218.8,131.2h35v87.5h-35V131.2z
		 M498.8,507.5c0,14.5-11.8,26.2-26.2,26.2h-245c-14.5,0-26.2-11.8-26.2-26.2V236.2h17.5V280c0,14.5,11.8,26.2,26.2,26.2
		s26.2-11.8,26.2-26.2c0-4.8,3.9-8.8,8.8-8.8s8.8,3.9,8.8,8.8v52.5c0,14.5,11.8,26.2,26.2,26.2s26.2-11.8,26.2-26.2v-35
		c0-4.8,3.9-8.8,8.8-8.8s8.8,3.9,8.8,8.8v70c0,14.5,11.8,26.2,26.2,26.2s26.2-11.8,26.2-26.2V236.2h87.5V507.5z M516.2,306.2H560
		c4.8,0,8.8,3.9,8.8,8.8v105c0,4.8-3.9,8.8-8.8,8.8h-43.8V306.2z M603.8,428.8c0,19.3-15.7,35-35,35h-52.5v-17.5H560
		c14.5,0,26.2-11.8,26.2-26.2V315c0-14.5-11.8-26.2-26.2-26.2h-43.8v-17.5h52.5c19.3,0,35,15.7,35,35V428.8z"/>
</g>
</svg>
