<?xml version="1.0" encoding="utf-8"?>
<!-- Generator: Adobe Illustrator 26.0.2, SVG Export Plug-In . SVG Version: 6.00 Build 0)  -->
<svg version="1.1" id="Layer_1" xmlns="http://www.w3.org/2000/svg" xmlns:xlink="http://www.w3.org/1999/xlink" x="0px" y="0px"
	 width="700px" height="700px" viewBox="0 0 700 700" style="enable-background:new 0 0 700 700;" xml:space="preserve">
<g>
	<path d="M255.4,294c-20.2,0-36.4,16.2-36.4,36.4s16.2,36.4,36.4,36.4s36.4-16.2,36.4-36.4C291.8,310.2,275.5,294,255.4,294z
		 M255.4,345c-7.8,0-14.6-6.2-14.6-14.6c0-7.8,6.2-14.6,14.6-14.6c7.8,0,14.6,6.2,14.6,14.6C269.9,338.2,263.2,345,255.4,345z"/>
	<path d="M535.9,211.1H314.2c-6.2,0-11.2,5-11.2,11.2v18.5c-14.6-7.8-30.8-12.3-48.2-12.3c-56-0.6-101.9,45.4-101.9,101.9
		c0,56.6,45.9,101.9,102.5,101.9c17.4,0,33.6-4.5,48.2-12.3v18.5c0,6.2,5,11.2,11.2,11.2h221.8c6.2,0,11.2-5,11.2-11.2V221.8
		C547.1,216.2,542.1,211.1,535.9,211.1L535.9,211.1z M255.4,410.5c-44.2,0-80.1-35.8-80.1-80.1s35.8-80.1,80.1-80.1
		c17.9,0,34.7,6.2,48.2,16.2v128.2C290.1,404.3,273.3,410.5,255.4,410.5L255.4,410.5z M524.7,427.8H325.4V233h199.4V427.8z"/>
	<path d="M375.8,365.7c2.2,2.2,5,3.4,7.8,3.4c2.8,0,5.6-1.1,7.8-3.4c4.5-4.5,4.5-11.2,0-15.7l-21.3-21.3l21.3-21.3
		c4.5-4.5,4.5-11.2,0-15.7c-4.5-4.5-11.2-4.5-15.7,0l-29.1,29.1c-2.2,2.2-3.4,5-3.4,7.8s1.1,5.6,3.4,7.8L375.8,365.7z"/>
	<path d="M458.6,365.7c2.2,2.2,5,3.4,7.8,3.4s5.6-1.1,7.8-3.4l29.1-29.1c2.2-2.2,3.4-5,3.4-7.8s-1.1-5.6-3.4-7.8l-29.1-29.1
		c-4.5-4.5-11.2-4.5-15.7,0c-4.5,4.5-4.5,11.2,0,15.7l21.3,21.3L458.6,350C454.7,354.5,454.7,361.2,458.6,365.7L458.6,365.7z"/>
	<path d="M412.7,382.5c1.1,0,1.7,0.6,2.8,0.6c5,0,9.5-3.4,10.6-8.4l19.6-82.3c1.1-6.2-2.2-11.8-8.4-13.4c-6.2-1.7-11.8,2.2-13.4,8.4
		l-19.6,82.3C403.2,374.6,407.1,380.8,412.7,382.5L412.7,382.5z"/>
	<path d="M161.3,106.4c0,7.7-6.3,14-14,14c-7.7,0-14-6.3-14-14c0-7.7,6.3-14,14-14C155,92.4,161.3,98.7,161.3,106.4"/>
	<path d="M201.6,106.4c0,7.7-6.3,14-14,14c-7.7,0-14-6.3-14-14c0-7.7,6.3-14,14-14C195.3,92.4,201.6,98.7,201.6,106.4"/>
	<path d="M241.4,106.4c0,7.7-6.3,14-14,14c-7.7,0-14-6.3-14-14c0-7.7,6.3-14,14-14C235.1,92.4,241.4,98.7,241.4,106.4"/>
	<path d="M594.7,45.4H105.3C93.5,45.4,84,54.9,84,66.6v427.3c0,11.8,9.5,21.3,21.3,21.3h489.4c11.8,0,21.3-9.5,21.3-21.3l0-427.3
		C616,54.9,606.5,45.4,594.7,45.4L594.7,45.4z M594.2,66.6v79.5H105.3v-79L594.2,66.6z M105.8,493.4L105.3,168h488.9v324.8
		L105.8,493.4z"/>
</g>
</svg>
